<?xml version="1.0" encoding="utf-8"?>
<!-- Generator: Adobe Illustrator 16.0.0, SVG Export Plug-In . SVG Version: 6.00 Build 0)  -->
<!DOCTYPE svg PUBLIC "-//W3C//DTD SVG 1.1//EN" "http://www.w3.org/Graphics/SVG/1.1/DTD/svg11.dtd">
<svg version="1.1" id="Layer_1" xmlns="http://www.w3.org/2000/svg" xmlns:xlink="http://www.w3.org/1999/xlink" x="0px" y="0px"
	 width="1600px" height="960.097px" viewBox="0 0 1600 960.097" enable-background="new 0 0 1600 960.097" xml:space="preserve">
<line fill="none" stroke="#E52128" stroke-width="10.1298" stroke-miterlimit="10" x1="189.587" y1="96.449" x2="1065.461" y2="96.449"/>
<line fill="none" stroke="#E52128" stroke-width="1.8418" stroke-miterlimit="10" x1="189.587" y1="244.246" x2="1065.461" y2="244.246"/>
<line fill="none" stroke="#E52128" stroke-width="1.8418" stroke-miterlimit="10" x1="189.587" y1="371.887" x2="1065.461" y2="371.887"/>
<line fill="none" stroke="#E52128" stroke-width="1.8418" stroke-miterlimit="10" x1="189.587" y1="580.93" x2="1065.461" y2="580.93"/>
<line fill="none" stroke="#FFFFFF" stroke-width="10.1298" stroke-miterlimit="10" x1="1134.534" y1="96.449" x2="1374.912" y2="96.449"/>
<text transform="matrix(1 0 0 1 187.2373 163.1406)" fill="#E52128" font-family="'Exo2-ExtraBold'" font-size="29.4686">Schedule</text>
<text transform="matrix(1 0 0 1 187.2373 486.374)"><tspan x="0" y="0" fill="#E52128" font-family="'Exo2-Light'" font-size="22.1014">08:00-</tspan><tspan x="0" y="34.994" fill="#E52128" font-family="'Exo2-Light'" font-size="22.1014">09:00 AM</tspan></text>
<text transform="matrix(1 0 0 1 374.6733 486.374)"><tspan x="0" y="0" fill="#E52128" font-family="'Exo2-ExtraBold'" font-size="29.4686">Registration</tspan><tspan x="0" y="34.994" fill="#E52128" font-family="'Exo2-Light'" font-size="22.1014">lorem ipsum</tspan></text>
<text transform="matrix(1 0 0 1 734.8965 486.374)"><tspan x="0" y="0" fill="#E52128" font-family="'Exo2-ExtraBold'" font-size="29.4686">Warm up</tspan><tspan x="0" y="34.994" fill="#E52128" font-family="'Exo2-Light'" font-size="22.1014">lorem ipsum</tspan></text>
<text transform="matrix(1 0 0 1 374.6733 337.2998)" fill="#E52128" font-family="'Exo2-ExtraBold'" font-size="29.4686">Day 1</text>
<text transform="matrix(1 0 0 1 734.8965 337.2998)" fill="#E52128" font-family="'Exo2-ExtraBold'" font-size="29.4686">Day 2</text>
<text transform="matrix(1 0 0 1 1134.7881 163.1406)" fill="#FFFFFF" font-family="'Exo2-ExtraBold'" font-size="29.4686">Sponsors</text>
<line fill="none" stroke="#E52128" stroke-width="1.8418" stroke-miterlimit="10" x1="681.41" y1="243.809" x2="681.41" y2="870.999"/>
<g>
	<path fill="#2D97BF" d="M1191.709,267.119c-7.293,1.646-15.522-2.477-15.522-2.477c-0.377,10.953,5.22,16.158,9.662,18.557
		c15.998,5.218,29.354-3.073,36.554-7.548c1.451-0.902,2.63-1.554,3.556-2.094c3.109-1.815,6.706-4.626,8.61-5.394
		c-0.933-4.707-2.814-17.832,0.529-26.888C1213.361,244.271,1205.577,263.987,1191.709,267.119z"/>
	<path fill="#2D97BF" d="M1375.933,255.222c-16.58,2.44-28.177,7.631-36.282,13.911c-15.706-38.292-53.386-65.334-97.27-65.334
		c-57.944,0-105.084,47.14-105.084,105.084c0,57.943,47.14,105.084,105.084,105.084c57.944,0,105.084-47.141,105.084-105.084
		c0-0.358-0.01-0.714-0.014-1.073c16.779,4.028,4.977-10.094,4.977-10.094c28.675,6.464,11.03-10.268,11.03-10.268
		c25.979,4.185,9.167-10.562,9.167-10.562c23.767-1.375,4.41-11.271,4.41-11.271
		C1402.897,255.505,1375.933,255.222,1375.933,255.222z M1321.293,310.047c-4.267-3.805-8.261-8.784-12.438-14.803
		c-10.397-14.984-22.146-40.022-40.996-47.966c-3.549-1.497-6.871-2.681-10.009-3.619c1.328,8.801-1.619,20.134-2.983,24.569
		c4.073,1.822,13.808,9.066,24.121,26.048c4.679,7.705,8.825,14.36,13.08,19.963c3.729,5.69,10.252,14.403,18.635,20.625
		c-14.563-6.604-23.287-19.53-34.899-38.653c-12.122-19.963-24.274-23.822-24.396-23.858c-0.483-0.146-0.892-0.484-1.122-0.934
		c-0.231-0.449-0.273-0.976-0.11-1.454c2.194-6.424,7.454-24.568,2.644-31.293c-1.234-1.726-3.667-3.188-6.159-3.188
		c-2.603,0-5.217,1.535-6.713,3.416c-5.482,6.891-2.259,24.893-0.793,31.248c0.209,0.91-0.286,1.834-1.161,2.163
		c-0.048,0.018-10.999,5.937-14.482,7.965c-7.198,4.191-18.085,11.766-33.269,9.614c-2.89,7.835-12.193,11.381-12.193,11.381
		s-26.078,7.611-9.935,39.738c5.5,10.945,14.543,16.017,24.962,18.343c18.541-0.685,19.25-14.825,19.358-15.424
		c0.181-1.01,1.143-1.684,2.155-1.511c1.01,0.177,1.688,1.133,1.516,2.145c-0.026,0.149,0.583,11.788-13.234,16.829
		c25.421,2.057,42.702-2.372,49.066-9.485c0,0-2.213,8.087-10.87,14.079c12.941,8.769,24.238,27.345,28.979,35.884
		c-8.771,2.615-18.055,4.026-27.664,4.026c-53.492,0-97.013-43.52-97.013-97.013s43.521-97.012,97.013-97.012
		c41.583,0,77.135,26.299,90.906,63.137C1320.632,288.98,1320.928,305.478,1321.293,310.047z M1220.479,290.022
		c1.874-0.118,2.709,0.92,3.499,2.382c0.527,0.806,1.31,1.531,3.272,1.984c0,0,3.859,0.841,1.174,3.031
		c-0.945,0.771-1.66,1.262-2.639,1.214c-0.196,4.016-1.986,7.06-5.306,7.118c-5.063,0.09-4.959-8.143-4.953-8.281
		C1216.04,292.779,1217.591,290.204,1220.479,290.022z"/>
</g>
</svg>
