<?xml version="1.0" encoding="utf-8"?>
<!-- Generator: Adobe Illustrator 16.0.0, SVG Export Plug-In . SVG Version: 6.00 Build 0)  -->
<!DOCTYPE svg PUBLIC "-//W3C//DTD SVG 1.1//EN" "http://www.w3.org/Graphics/SVG/1.1/DTD/svg11.dtd">
<svg version="1.1" id="Layer_1" xmlns="http://www.w3.org/2000/svg" xmlns:xlink="http://www.w3.org/1999/xlink" x="0px" y="0px"
	 width="1600px" height="1154.813px" viewBox="0 0 1600 1154.813" enable-background="new 0 0 1600 1154.813" xml:space="preserve">
<text transform="matrix(1 0 0 1 335.8979 538.7271)" fill="#FDEAED" font-family="'Exo2-ExtraBold'" font-size="230.2471">django</text>
<rect x="1082.528" y="656.315" fill="none" stroke="#2D97BF" stroke-width="9.6299" stroke-miterlimit="10" width="223.562" height="96.579"/>
<g>
	<g>
		<path fill="none" stroke="#FFFFFF" stroke-width="4.0006" stroke-miterlimit="10" d="M1080.471,23.003
			c-5.938,12.558-18.312,6.706-24.25,19.264c-5.939,12.56,6.435,18.411,0.495,30.97c-5.938,12.56-18.312,6.708-24.251,19.268
			c-5.939,12.559,6.435,18.411,0.495,30.97c-5.939,12.56-18.312,6.708-24.252,19.269c-5.94,12.562,6.434,18.413,0.493,30.975
			c-5.939,12.562-18.313,6.71-24.253,19.271"/>
	</g>
	<g>
		<path fill="none" stroke="#FFFFFF" stroke-width="4.0006" stroke-miterlimit="10" d="M1105.081,34.596
			c-5.938,12.558-18.312,6.706-24.25,19.264c-5.938,12.56,6.435,18.411,0.496,30.97c-5.939,12.559-18.312,6.708-24.252,19.267
			c-5.939,12.56,6.435,18.411,0.495,30.97c-5.939,12.56-18.312,6.708-24.252,19.268c-5.94,12.562,6.434,18.413,0.493,30.975
			c-5.939,12.562-18.313,6.71-24.253,19.271"/>
	</g>
	<g>
		<path fill="none" stroke="#FFFFFF" stroke-width="4.0006" stroke-miterlimit="10" d="M1129.691,46.188
			c-5.938,12.558-18.311,6.707-24.249,19.264c-5.939,12.56,6.434,18.411,0.495,30.97c-5.939,12.559-18.313,6.708-24.252,19.267
			c-5.939,12.559,6.435,18.411,0.495,30.97c-5.939,12.56-18.312,6.708-24.252,19.268c-5.94,12.562,6.434,18.413,0.493,30.975
			c-5.939,12.562-18.313,6.71-24.253,19.271"/>
	</g>
	<g>
		<path fill="none" stroke="#FFFFFF" stroke-width="4.0006" stroke-miterlimit="10" d="M1154.301,57.782
			c-5.938,12.558-18.312,6.706-24.25,19.264c-5.938,12.56,6.435,18.411,0.496,30.97c-5.939,12.56-18.312,6.708-24.252,19.268
			c-5.938,12.559,6.435,18.41,0.496,30.97s-18.312,6.708-24.252,19.268c-5.94,12.562,6.434,18.413,0.493,30.975
			c-5.939,12.562-18.313,6.71-24.253,19.271"/>
	</g>
</g>
<g>
	<path fill="none" stroke="#FFFFFF" stroke-width="4.0006" stroke-miterlimit="10" d="M314.393,63.086
		c8.48,11.002-2.36,19.358,6.121,30.36c8.481,11.003,19.322,2.646,27.804,13.649c8.481,11.003-2.359,19.36,6.123,30.363
		c8.481,11.003,19.322,2.647,27.804,13.65c8.482,11.004-2.359,19.36,6.123,30.364c8.483,11.005,19.324,2.649,27.807,13.654
		s-2.357,19.361,6.126,30.367"/>
</g>
<circle fill="#E8D9DE" cx="510.765" cy="171.26" r="14.16"/>
<circle fill="#2D97BF" cx="568.604" cy="171.26" r="14.16"/>
<circle fill="#E8D9DE" cx="624.906" cy="171.26" r="14.16"/>
<circle fill="#E8D9DE" cx="168.342" cy="342.464" r="14.16"/>
<circle fill="#E8D9DE" cx="1367.167" cy="456.098" r="14.159"/>
<circle fill="#2D97BF" cx="624.905" cy="285.55" r="14.16"/>
<circle fill="#552E85" cx="681.976" cy="285.55" r="14.16"/>
<circle fill="#E8D9DE" cx="910.258" cy="228.137" r="14.16"/>
<circle fill="#2D97BF" cx="967.328" cy="228.137" r="14.16"/>
<circle fill="#E8D9DE" cx="1195.623" cy="228.137" r="14.16"/>
<circle fill="#E8D9DE" cx="1251.683" cy="228.137" r="14.16"/>
<circle fill="#E8D9DE" cx="853.188" cy="342.464" r="14.16"/>
<circle fill="#2D97BF" cx="1423.905" cy="342.464" r="14.16"/>
<circle fill="#E8D9DE" cx="1309.041" cy="398.783" r="14.159"/>
<circle fill="#2D97BF" cx="111.019" cy="513.676" r="14.16"/>
<circle fill="#552E85" cx="1189.718" cy="570.818" r="14.16"/>
<circle fill="#2D97BF" cx="1248.607" cy="570.818" r="14.16"/>
<circle fill="#E8D9DE" cx="168.347" cy="684.887" r="14.16"/>
<circle fill="#E8D9DE" cx="225.686" cy="171.246" r="14.162"/>
<circle fill="#2D97BF" cx="282.483" cy="171.246" r="14.161"/>
<circle fill="#552E85" cx="225.412" cy="570.746" r="14.161"/>
<circle fill="#E8D9DE" cx="568.77" cy="855.668" r="14.16"/>
<circle fill="#E8D9DE" cx="952.718" cy="821.36" r="9.249"/>
<circle fill="#2D97BF" cx="511.7" cy="855.668" r="14.16"/>
<circle fill="#E8D9DE" cx="1480.976" cy="741.549" r="14.16"/>
<circle fill="#E8D9DE" cx="111.271" cy="799.028" r="14.159"/>
<circle fill="#E8D9DE" cx="567.845" cy="970.295" r="14.16"/>
<circle fill="#E8D9DE" cx="1085.766" cy="914.12" r="14.16"/>
<circle fill="#552E85" cx="1130.828" cy="970.295" r="14.16"/>
<circle fill="#E8D9DE" cx="1251.942" cy="856.665" r="14.16"/>
<circle fill="#2D97BF" cx="167.686" cy="914.119" r="14.162"/>
<circle fill="#E8D9DE" cx="225.409" cy="914.12" r="14.161"/>
<text transform="matrix(1 0 0 1 339.5854 708.2695)" fill="#FFFFFF" font-family="'Exo2-ExtraBold'" font-size="156.3674" letter-spacing="1">birthday</text>
<text transform="matrix(1 0 0 1 1120.0601 716.5708)" fill="#FFFFFF" font-family="'Exo2-ExtraBold'" font-size="44.2028">July 21</text>
<polygon fill="none" stroke="#2D97BF" stroke-width="11.9273" stroke-miterlimit="10" points="993.579,928.428 733.705,928.428 
	733.705,791.754 963.203,791.754 973.641,797.242 988.048,797.242 988.048,806.143 981.596,819.653 993.579,831.932 "/>
<text transform="matrix(1 0 0 1 755.7139 870.5312)" fill="#FFFFFF" font-family="'Exo2-ExtraBold'" font-size="33.1521">Lawrence, KS</text>
<g>
	<path fill="none" stroke="#FDEAEC" stroke-width="4.0006" stroke-miterlimit="10" d="M374.708,893.25
		c-6.035,12.512-18.363,6.565-24.397,19.077c-6.035,12.513,6.293,18.459,0.257,30.973s-18.364,6.567-24.399,19.08
		c-6.036,12.513,6.292,18.459,0.257,30.973c-6.036,12.514-18.364,6.567-24.399,19.081c-6.037,12.516,6.292,18.462,0.255,30.978
		c-6.037,12.515-18.366,6.569-24.404,19.084"/>
</g>
<g>
	<path fill="none" stroke="#FDEAEC" stroke-width="4.0006" stroke-miterlimit="10" d="M399.229,905.032
		c-6.035,12.512-18.363,6.565-24.398,19.077c-6.036,12.513,6.292,18.459,0.257,30.973c-6.036,12.513-18.364,6.567-24.399,19.08
		s6.292,18.459,0.257,30.973c-6.035,12.514-18.363,6.567-24.398,19.081c-6.037,12.516,6.292,18.462,0.255,30.977
		c-6.037,12.516-18.365,6.569-24.402,19.084"/>
</g>
<g>
	<path fill="none" stroke="#FDEAEC" stroke-width="4.0006" stroke-miterlimit="10" d="M423.75,916.813
		c-6.035,12.512-18.363,6.565-24.398,19.077c-6.035,12.513,6.293,18.459,0.258,30.972c-6.036,12.514-18.364,6.567-24.399,19.081
		c-6.036,12.513,6.292,18.459,0.257,30.973c-6.036,12.514-18.364,6.567-24.399,19.081c-6.037,12.516,6.292,18.462,0.255,30.977
		c-6.037,12.516-18.365,6.569-24.401,19.084"/>
</g>
<g>
	<path fill="none" stroke="#FDEAEC" stroke-width="4.0006" stroke-miterlimit="10" d="M448.27,928.596
		c-6.035,12.512-18.363,6.565-24.397,19.077c-6.036,12.513,6.292,18.459,0.257,30.973c-6.036,12.514-18.364,6.567-24.399,19.081
		c-6.035,12.513,6.293,18.459,0.257,30.973c-6.036,12.514-18.364,6.568-24.399,19.082c-6.037,12.516,6.292,18.461,0.255,30.977
		c-6.037,12.516-18.365,6.569-24.401,19.085"/>
</g>
<circle fill="#E8D9DE" cx="666.265" cy="1027.413" r="14.16"/>
<g>
	<path fill="none" stroke="#FDEAEC" stroke-width="4.0006" stroke-miterlimit="10" d="M1377.503,846.325
		c8.48,11.002-2.36,19.358,6.12,30.36c8.482,11.003,19.322,2.647,27.804,13.65c8.482,11.003-2.358,19.36,6.123,30.363
		s19.322,2.647,27.804,13.65c8.482,11.004-2.359,19.36,6.123,30.364c8.483,11.005,19.324,2.649,27.807,13.654
		c8.483,11.005-2.357,19.362,6.126,30.367"/>
</g>
<circle fill="#2D97BF" cx="1307.187" cy="970.295" r="14.16"/>
</svg>
