<?xml version="1.0" encoding="utf-8"?>
<!-- Generator: Adobe Illustrator 16.0.0, SVG Export Plug-In . SVG Version: 6.00 Build 0)  -->
<!DOCTYPE svg PUBLIC "-//W3C//DTD SVG 1.1//EN" "http://www.w3.org/Graphics/SVG/1.1/DTD/svg11.dtd">
<svg version="1.1" id="Layer_1" xmlns="http://www.w3.org/2000/svg" xmlns:xlink="http://www.w3.org/1999/xlink" x="0px" y="0px"
	 width="1600px" height="766.03px" viewBox="0 0 1600 766.03" enable-background="new 0 0 1600 766.03" xml:space="preserve">
<g>
	<text transform="matrix(1 0 0 1 475.5615 443.4639)" fill="#EF3742" font-family="'Exo2-ExtraBold'" font-size="191.6945">django</text>
</g>
<circle fill="#E8D9DE" cx="224.72" cy="383.664" r="16.042"/>
<circle fill="#E8D9DE" cx="804.224" cy="115.129" r="16.042"/>
<circle fill="#E8D9DE" cx="870.937" cy="115.129" r="16.042"/>
<text transform="matrix(1 0 0 1 538.8955 259.5928)" fill="#B195A5" font-family="'Exo2-ExtraLight'" font-size="78.4973">Happy birthday</text>
<text transform="matrix(1 0 0 1 490.3838 573.4639)" fill="#B195A5" font-family="'Exo2-ExtraLight'" font-size="78.4973">Time to celebrate!</text>
<circle fill="#552E85" cx="1369.63" cy="58.059" r="14.16"/>
<circle fill="#2D97BF" cx="1423.91" cy="58.059" r="14.16"/>
<circle fill="#E8D9DE" cx="1369.63" cy="158.751" r="14.16"/>
<circle fill="#E8D9DE" cx="1421.987" cy="534.746" r="14.16"/>
<circle fill="#2D97BF" cx="216.427" cy="615.044" r="14.16"/>
<g>
	<g>
		<path fill="none" stroke="#FFAFBB" stroke-width="4.0006" stroke-miterlimit="10" d="M146.459,105.09
			c-0.067,13.891-13.754,13.824-13.821,27.715c-0.067,13.893,13.619,13.959,13.552,27.852s-13.754,13.826-13.821,27.719
			s13.619,13.959,13.552,27.852c-0.067,13.893-13.754,13.827-13.821,27.72c-0.067,13.896,13.62,13.961,13.552,27.856
			c-0.067,13.895-13.754,13.829-13.822,27.724"/>
	</g>
	<g>
		<path fill="none" stroke="#FFAFBB" stroke-width="4.0006" stroke-miterlimit="10" d="M173.662,105.181
			c-0.067,13.891-13.754,13.825-13.822,27.716c-0.067,13.893,13.62,13.958,13.553,27.851c-0.067,13.893-13.754,13.827-13.821,27.719
			s13.62,13.959,13.553,27.852c-0.067,13.893-13.754,13.827-13.821,27.72c-0.067,13.896,13.62,13.961,13.553,27.856
			c-0.067,13.895-13.754,13.829-13.821,27.724"/>
	</g>
	<g>
		<path fill="none" stroke="#FFAFBB" stroke-width="4.0006" stroke-miterlimit="10" d="M200.866,105.271
			c-0.067,13.891-13.754,13.824-13.821,27.715c-0.067,13.893,13.619,13.959,13.552,27.852
			c-0.067,13.893-13.754,13.826-13.821,27.719s13.62,13.959,13.553,27.852s-13.754,13.827-13.822,27.72
			c-0.067,13.896,13.62,13.961,13.553,27.856s-13.754,13.829-13.822,27.724"/>
	</g>
	<g>
		<path fill="none" stroke="#FFAFBB" stroke-width="4.0006" stroke-miterlimit="10" d="M228.07,105.362
			c-0.067,13.891-13.754,13.825-13.822,27.716c-0.067,13.893,13.621,13.958,13.554,27.851c-0.067,13.893-13.754,13.827-13.822,27.72
			s13.62,13.958,13.553,27.851c-0.068,13.893-13.755,13.827-13.822,27.72c-0.067,13.896,13.62,13.961,13.553,27.856
			c-0.067,13.895-13.754,13.829-13.821,27.724"/>
	</g>
</g>
<g>
	<path fill="none" stroke="#FFAFBB" stroke-width="4.0006" stroke-miterlimit="10" d="M1305.682,236.487
		c8.48,11.002-2.36,19.357,6.12,30.359c8.481,11.003,19.322,2.647,27.804,13.65c8.482,11.003-2.359,19.359,6.123,30.362
		c8.481,11.004,19.322,2.647,27.804,13.651c8.482,11.003-2.357,19.359,6.124,30.363c8.483,11.005,19.324,2.648,27.807,13.654
		c8.483,11.005-2.358,19.361,6.125,30.366"/>
</g>
<circle fill="#E8D9DE" cx="339.031" cy="115.004" r="14.16"/>
<circle fill="#E8D9DE" cx="1292.465" cy="653.559" r="14.16"/>
<g>
	<path fill="none" stroke="#FDEAEC" stroke-width="4.0006" stroke-miterlimit="10" d="M993.42-81.204
		c8.48,11.002-2.36,19.358,6.121,30.36c8.481,11.003,19.322,2.647,27.803,13.65c8.482,11.003-2.358,19.36,6.124,30.363
		c8.481,11.003,19.321,2.647,27.804,13.65c8.482,11.004-2.358,19.36,6.124,30.364c8.483,11.005,19.324,2.649,27.807,13.654
		c8.483,11.005-2.357,19.362,6.126,30.367"/>
</g>
<polygon fill="none" stroke="#2D97BF" stroke-width="11.9716" stroke-miterlimit="10" points="67.677,508.547 230.464,524.594 
	246.722,530.175 262.978,530.175 260.246,542.733 280.54,542.733 273.705,566.455 279.605,582.502 294.191,579.383 296.769,546.222 
	311.234,548.315 317.522,567.152 315.44,574.129 327.635,572.931 341.788,556.688 342.698,543.432 371.08,531.373 374.207,513.231 
	387.337,510.665 397.779,541.038 379.571,551.529 381.807,564.363 364.29,579.383 360.028,605.826 363.592,624.364 340.359,654.326 
	336.011,667.173 350.223,698.319 350.223,714.366 334.881,714.366 324.053,694.133 324.053,687.156 311.185,677.388 
	270.733,679.481 268.342,689.947 234.986,688.552 219.737,698.319 215.672,717.855 198.989,714.789 183.578,688.974 
	175.578,692.039 165.034,685.062 153.959,666.226 139.623,664.132 137.704,673.85 117.298,670.361 95.386,647.387 76.965,645.992 
	59.338,616.689 51.672,582.502 52.148,548.315 "/>
</svg>
