<?xml version="1.0" encoding="UTF-8" standalone="no"?>
<svg width="800px" height="665px" viewBox="0 0 800 665" version="1.1" xmlns="http://www.w3.org/2000/svg" xmlns:xlink="http://www.w3.org/1999/xlink" xmlns:sketch="http://www.bohemiancoding.com/sketch/ns">
    <!-- Generator: Sketch 3.2.2 (9983) - http://www.bohemiancoding.com/sketch -->
    <title>Eldarion_Vector</title>
    <desc>Created with Sketch.</desc>
    <defs>
        <path d="M17.943461,63.4551669 L17.943461,62.1251669 C17.943461,52.9695231 22.6673712,48.5397138 30.78679,48.5397138 C38.4634082,48.5397138 41.7099075,52.2315739 41.7099075,55.923434 C41.7099075,63.4551669 35.9535007,65.3751033 28.4248349,65.3751033 C24.5865258,65.3751033 20.010568,64.6371542 17.943461,63.4551669 L17.943461,63.4551669 Z M0.228269485,84.133601 C0.228269485,101.853895 12.0391017,111.009539 32.1151915,111.009539 C45.6961691,111.009539 57.2110964,104.659793 61.6412153,93.4351431 L60.9014531,92.1072576 L47.1735799,87.6753339 L45.8441215,88.413283 C43.0393659,92.9932194 39.0541612,95.7991176 31.5244386,95.7991176 C23.2570674,95.7991176 17.943461,91.3682512 17.943461,80.7367091 L17.943461,77.0427345 L16.9088507,69.9539825 C20.8951123,76.7477663 28.2768824,79.5536645 35.3627477,79.5536645 C48.0581242,79.5536645 59.8678996,71.2839825 59.8678996,56.5154849 C59.8678996,45.4377901 52.3402906,33.1812798 31.2285337,33.1812798 C12.7756935,33.1812798 0.228269485,43.3708983 0.228269485,60.5033704 L0.228269485,84.133601 Z M76.9944518,91.2223529 C76.9944518,108.204698 91.9048877,109.681653 97.5154557,109.681653 C98.6959049,109.681653 100.172259,109.534698 100.319155,109.534698 L101.352708,108.499666 L103.566711,95.0601113 L102.533157,94.027194 L101.500661,94.027194 C98.1051519,94.027194 94.7096433,92.697194 94.7096433,88.7103657 L94.7096433,1.42832273 L93.6771466,0.394348172 L78.0280053,2.46335453 L76.9944518,3.49627186 L76.9944518,91.2223529 Z M133.830383,81.9165819 L133.830383,62.2752941 C133.830383,53.118593 139.146103,48.3927583 146.379921,48.3927583 C154.351387,48.3927583 158.63144,52.5265421 158.63144,60.6503259 L158.63144,94.027194 C155.089036,94.914213 149.479524,96.2410413 146.969617,96.2410413 C139.883752,96.2410413 133.830383,92.1072576 133.830383,81.9165819 Z M116.116248,85.0163911 C116.116248,102.295819 127.926024,111.009539 140.031704,111.009539 C148.889828,111.009539 156.417437,105.841781 159.517041,97.5710413 L164.242008,109.384571 L165.422457,110.27159 L179.74214,108.351653 L180.627741,107.171781 L176.346631,92.1072576 L176.346631,1.42832273 L175.314135,0.394348172 L159.664993,2.46335453 L158.63144,3.49627186 L158.63144,29.7843879 L159.517041,37.4620191 C155.089036,34.5102226 150.069221,33.1812798 144.755614,33.1812798 C128.811625,33.1812798 116.116248,43.07593 116.116248,60.058275 L116.116248,85.0163911 Z M210.597622,88.7103657 C210.597622,75.1227981 230.527873,86.3463911 234.365125,69.9539825 L234.365125,93.4351431 C234.365125,93.4351431 227.870013,96.5360095 220.488243,96.5360095 C214.287979,96.5360095 210.597622,93.2892448 210.597622,88.7103657 Z M192.292734,88.7103657 C192.292734,102.295819 202.774108,111.009539 214.583884,111.009539 C230.379921,111.009539 235.103831,97.2771304 235.103831,97.2771304 L239.827741,109.384571 L241.009247,110.27159 L255.329987,108.351653 L256.214531,107.171781 L251.932365,92.1072576 L251.932365,57.1064785 C251.932365,39.6790382 238.794188,33.1812798 222.11255,33.1812798 C213.55033,33.1812798 204.398415,35.8402226 197.902246,41.1549364 L197.607398,42.6329491 L205.284016,53.4146184 L206.759313,53.7074722 C211.040423,50.3105803 216.356143,48.3927583 221.965654,48.3927583 C228.607662,48.3927583 234.21823,50.4596502 234.21823,59.1733704 L234.21823,62.8652305 C231.413474,67.0000715 213.106473,63.1623132 202.774108,69.5099444 C196.278996,73.4978299 192.292734,79.9955882 192.292734,88.7103657 Z M272.897226,108.204698 L273.930779,109.238672 L289.577807,109.238672 L290.611361,108.204698 L290.611361,50.164682 C291.940819,49.7217011 294.006869,49.7217011 295.631176,49.7217011 C303.011889,49.7217011 308.769353,52.2315739 308.769353,52.2315739 L310.097754,51.1975994 L311.722061,34.0651272 L310.689564,32.8852544 C299.321532,32.8852544 292.82642,38.3490382 289.726816,46.6187202 L285.002906,34.8030763 L283.820343,33.9181717 L269.501717,35.8402226 L268.615059,37.0200954 L272.897226,52.0846184 L272.897226,108.204698 Z M323.827741,108.204698 L324.861295,109.238672 L340.510436,109.238672 L341.543989,108.204698 L341.543989,34.8030763 L340.510436,33.770159 L324.861295,35.8402226 L323.827741,36.8731399 L323.827741,108.204698 Z M324.566446,20.4796741 L340.953236,20.4796741 L341.98679,19.592655 L341.98679,3.64322734 L340.953236,2.75832273 L324.566446,2.75832273 L323.532893,3.64322734 L323.532893,19.592655 L324.566446,20.4796741 Z M377.270277,81.7696264 L377.270277,62.2752941 C377.270277,53.118593 382.141083,48.3927583 390.851255,48.3927583 C399.265522,48.3927583 404.432232,53.118593 404.432232,62.2752941 L404.432232,81.7696264 C404.432232,90.9252703 399.265522,95.7991176 390.851255,95.7991176 C382.141083,95.7991176 377.270277,90.9252703 377.270277,81.7696264 Z M359.554029,84.133601 C359.554029,101.55787 372.988111,111.009539 390.851255,111.009539 C408.714399,111.009539 422.148481,101.55787 422.148481,84.133601 L422.148481,60.058275 C422.148481,42.6329491 408.714399,33.1812798 390.851255,33.1812798 C372.988111,33.1812798 359.554029,42.6329491 359.554029,60.058275 L359.554029,84.133601 Z M440.604491,108.204698 L441.638045,109.238672 L457.286129,109.238672 L458.318626,108.204698 L458.318626,50.164682 C461.863144,49.277663 468.653104,47.947663 471.160898,47.947663 C478.24782,47.947663 484.005284,52.0846184 484.005284,62.2752941 L484.005284,108.204698 L485.039894,109.238672 L500.687979,109.238672 L501.720476,108.204698 L501.720476,59.1733704 C501.720476,41.8918283 490.206605,33.1812798 478.100925,33.1812798 C469.243857,33.1812798 460.533686,38.3490382 457.434082,46.6187202 L452.710172,34.8030763 L451.527609,33.9181717 L437.208983,35.8402226 L436.323382,37.0200954 L440.604491,52.0846184 L440.604491,108.204698 Z" id="path-1"></path>
        <radialGradient cx="50%" cy="89.2165708%" fx="50%" fy="89.2165708%" r="100%" id="radialGradient-2">
            <stop stop-color="#FFFFFF" offset="0%"></stop>
            <stop stop-color="#FFFFFF" stop-opacity="0" offset="100%"></stop>
        </radialGradient>
        <path d="M74.6652576,248.135922 C71.0615588,242.344396 64.9479524,234.808434 59.924967,232.843037 C54.9019815,230.875525 55.1186262,230.656677 53.809247,230.329992 C52.4988111,230.000135 44.2007926,228.582385 53.2639366,232.949817 C62.3260238,237.320421 66.6103038,242.767289 68.0042272,245.405087 C71.1080581,251.279078 73.8853369,262.760636 75.7009247,274.351089 C77.8494055,274.261224 79.9968296,274.024404 82.1453104,273.450326 C80.3656539,265.385747 77.2871863,252.348998 74.6652576,248.135922 Z M104.146896,266.59628 C107.641744,263.208903 111.986262,257.129809 121.071598,260.915763 C126.313342,263.102122 127.186262,271.839102 126.640951,272.714491 C126.094584,273.587766 123.318362,282.379722 129.915984,274.680946 C135.157728,268.563792 128.38679,257.967138 126.529987,256.328426 C124.675297,254.690771 117.677147,251.235731 108.951123,254.142067 C108.296962,254.360914 112.008454,243.437576 111.899604,236.773831 C111.790753,230.112202 110.917834,222.464173 106.2214,218.095684 C101.526024,213.727194 96.8317041,214.053879 92.5727873,218.095684 C88.3138705,222.135374 89.0779392,225.632703 93.8832232,221.808688 C98.6874505,217.986789 103.601585,221.263156 104.802114,227.05151 C106.002642,232.843037 106.550066,242.565358 102.291149,253.159897 C99.3416116,260.496041 96.2103038,267.111153 94.147424,271.962798 L101.080053,271.962798 C102.184412,269.318657 103.319419,267.399777 104.146896,266.59628 Z M156.330779,296.45256 C154.676882,294.861423 152.907794,294.669006 152.41004,294.233426 C151.536063,293.469046 154.703303,294.671121 153.720476,284.075525 C152.738705,273.478871 147.649141,261.820755 146.949538,260.260278 C143.675561,252.939992 136.554822,249.010254 142.582827,261.243506 C146.295376,268.782639 146.514135,273.806614 146.076618,281.342576 C145.67926,288.209308 140.482959,299.409642 137.000793,304.2412 C139.039366,303.926145 141.078996,304.454762 143.116513,304.639777 C144.64465,303.315064 150.83646,300.414014 154.266843,303.846852 C154.29432,303.873283 154.319683,303.902886 154.34716,303.928259 C154.186526,301.436359 155.370145,298.942345 156.330779,296.45256 Z M172.174373,264.08535 C169.662351,258.622623 165.075826,253.704372 171.955614,239.394714 C178.834346,225.085056 179.927081,224.86938 181.128666,219.077854 C182.328137,213.289499 182.328137,206.189118 182.328137,205.42368 C182.328137,204.660358 182.001585,196.139054 190.190753,195.373617 C198.379921,194.609237 201.873712,198.542146 202.966446,200.289754 C204.057067,202.037361 206.132629,207.391192 205.913871,209.575437 C205.696169,211.760739 205.16037,220.15306 208.535799,209.683275 C210.718098,202.911693 205.477411,195.155827 204.166975,193.844857 C202.856539,192.534944 198.270013,187.837655 192.046499,188.602035 C185.821929,189.366415 180.690092,190.895175 179.598415,191.440707 C178.506737,191.988355 176.323382,183.358156 175.886922,180.189626 C175.449406,177.022154 173.375958,165.005636 177.632761,157.359722 C181.892734,149.71275 175.777015,151.679205 173.811361,155.612114 C171.845707,159.545024 167.696697,168.938545 169.225892,179.752989 C170.755086,190.56849 175.995773,197.121224 175.56037,204.111653 C175.121797,211.104197 173.70251,220.389881 169.007133,227.16252 C164.311757,233.933045 161.690885,241.144436 161.582034,242.8931 C161.473184,244.640707 159.289828,242.565358 158.962219,241.363283 C158.633554,240.162266 151.536063,229.127917 151.318362,214.818259 C151.099604,200.508601 133.409775,178.005382 132.536856,176.913259 C131.66288,175.821137 124.892999,168.28306 129.915984,178.660866 C134.940026,189.038672 140.180713,197.231176 141.491149,203.568235 C142.801585,209.902122 144.548481,236.337194 152.301189,248.462607 C156.863408,255.598935 159.843593,263.455238 167.840423,271.962798 L179.663937,271.962798 C175.960898,268.866161 173.042008,265.972512 172.174373,264.08535 Z M316.743989,111.480008 C315.983091,112.90093 312.267371,121.530072 312.04967,130.37806 C311.823514,139.583394 310.847028,147.090811 310.410568,149.276113 C309.975165,151.461415 305.496433,157.468617 305.280845,156.814189 C304.229326,153.661518 302.442272,149.167218 296.546367,146.873021 C290.649406,144.578824 284.531572,150.695978 283.988375,154.847734 C283.443065,158.999491 286.061823,156.48539 286.170674,155.393267 C286.280581,154.301145 291.958785,150.914825 296.108851,154.628887 C300.255746,158.341892 296.546367,170.14062 295.016116,171.888227 C293.486922,173.635835 290.538441,178.442019 286.60819,182.156081 C283.368032,185.215715 265.31572,210.666502 265.31572,210.666502 C264.332893,207.06345 264.989168,168.391955 265.31572,163.476876 C265.643329,158.560739 275.143989,133 280.057067,125.461924 C284.971202,117.923847 284.971202,106.782719 284.971202,102.523124 C284.971202,98.2624722 282.349273,98.9168998 282.022721,102.523124 C281.694055,106.127234 278.09247,116.941677 271.212682,128.083863 C264.332893,139.226049 255.959841,161.061097 255.959841,161.061097 L255.234875,161.061097 C255.234875,161.061097 246.860766,139.226049 239.982034,128.083863 C233.103303,116.941677 229.500661,106.127234 229.171995,102.523124 C228.844386,98.9168998 226.223514,98.2624722 226.223514,102.523124 C226.223514,106.782719 226.223514,117.923847 231.137649,125.461924 C236.051783,133 245.551387,158.560739 245.878996,163.476876 C246.206605,168.391955 246.860766,207.06345 245.878996,210.666502 C245.878996,210.666502 227.825627,185.215715 224.586526,182.156081 C220.655218,178.442019 217.707794,173.635835 216.1786,171.888227 C214.649406,170.14062 210.936856,158.341892 215.086922,154.628887 C219.234875,150.914825 224.914135,154.301145 225.022985,155.393267 C225.131836,156.48539 227.751651,158.999491 227.206341,154.847734 C226.66103,150.695978 220.54531,144.578824 214.649406,146.873021 C208.752444,149.167218 206.963276,153.661518 205.913871,156.814189 C205.696169,157.468617 201.219551,151.461415 200.782034,149.276113 C200.345575,147.090811 199.372259,139.583394 199.145046,130.37806 C198.926288,121.530072 195.212682,112.90093 194.448613,111.480008 C193.684544,110.060143 190.954822,104.488521 192.482959,111.80775 C194.012153,119.126979 193.139234,128.848243 192.810568,131.470183 C192.630911,132.921765 192.300132,141.069865 194.122061,149.275056 C195.58996,155.89651 198.761427,162.379467 202.202378,166.753243 C210.281638,177.022154 227.971466,203.347273 231.684016,209.029905 C235.395509,214.709364 241.947688,227.381367 243.913342,242.455405 C245.878996,257.529444 245.661295,265.940795 245.661295,266.486328 C245.661295,267.035032 239.641744,249.599134 233.429855,243.546471 C229.281902,239.504666 219.442008,228.253585 204.9321,239.832409 C195.213738,247.589332 200.890885,260.479126 201.656011,262.118895 C202.420079,263.755493 206.678996,269.654857 207.005548,269.981542 C207.333157,270.310342 212.684808,275.990859 208.971202,268.451725 C205.258653,260.915763 203.185205,243.437576 216.1786,243.984165 C229.171995,244.529698 233.103303,258.402719 233.757464,259.822583 C234.377807,261.169499 242.003699,278.3062 244.050727,303.760159 C254.803699,304.024467 259.941876,315.885572 266.962219,310.599404 C266.752972,310.190254 266.769881,309.544285 266.843857,308.106447 C268.302246,280.262083 276.779921,261.243506 277.436196,259.822583 C278.09247,258.402719 282.022721,244.529698 295.016116,243.984165 C308.010568,243.437576 305.93712,260.915763 302.2214,268.451725 C298.508851,275.990859 303.860502,270.310342 304.185997,269.981542 C304.513606,269.654857 308.77358,263.755493 309.538705,262.118895 C310.303831,260.479126 315.980978,247.589332 306.262616,239.832409 C291.752708,228.253585 281.911757,239.504666 277.762748,243.546471 C271.551915,249.599134 265.532365,267.035032 265.532365,266.486328 C265.532365,265.940795 265.31572,257.529444 267.282431,242.455405 C269.247028,227.381367 275.797094,214.709364 279.509643,209.029905 C283.222193,203.347273 300.912021,177.022154 308.992338,166.753243 C312.433289,162.379467 315.602642,155.89651 317.073712,149.275056 C318.894584,141.069865 318.565918,132.921765 318.383091,131.470183 C318.055482,128.848243 317.181506,119.126979 318.7107,111.80775 C320.240951,104.488521 317.508058,110.060143 316.743989,111.480008 Z M310.193923,286.368665 C304.437517,288.878537 284.630911,299.755358 277.555614,303.962091 L292.028534,303.962091 C297.49432,300.791447 305.245971,296.762329 316.962748,290.738211 C317.114927,290.661033 317.254425,290.584913 317.402378,290.507734 L317.402378,282.279285 C314.497226,284.140016 311.927081,285.6138 310.193923,286.368665 Z M359.875297,214.818259 C359.657596,229.127917 352.559049,240.162266 352.23144,241.363283 C351.905945,242.565358 349.720476,244.640707 349.610568,242.8931 C349.501717,241.144436 346.884016,233.933045 342.185469,227.16252 C337.490092,220.389881 336.072919,211.104197 335.635403,204.111653 C335.197886,197.121224 340.438573,190.56849 341.968824,179.752989 C343.498018,168.938545 339.347952,159.545024 337.383355,155.612114 C335.416645,151.679205 329.301982,149.71275 333.558785,157.359722 C337.819815,165.005636 335.746367,177.022154 335.306737,180.189626 C334.871334,183.358156 332.686922,191.988355 331.596301,191.440707 C330.503567,190.895175 325.372787,189.366415 319.15033,188.602035 C312.923646,187.837655 308.339234,192.534944 307.026684,193.844857 C305.718362,195.155827 300.477675,202.911693 302.658917,209.683275 C306.034346,220.15306 305.496433,211.760739 305.280845,209.575437 C305.062087,207.391192 307.134478,202.037361 308.229326,200.289754 C309.322061,198.542146 312.813738,194.609237 321.003963,195.373617 C329.194188,196.139054 328.866579,204.660358 328.866579,205.42368 C328.866579,206.189118 328.866579,213.289499 330.06605,219.077854 C331.266579,224.86938 332.358256,225.085056 339.236988,239.394714 C346.116777,253.704372 341.531308,258.622623 339.020343,264.08535 C337.925495,266.46624 333.586262,270.447782 328.482959,274.424038 L340.90568,274.424038 C350.787847,264.964968 353.894848,256.281908 358.89247,248.462607 C366.647292,236.337194 368.391017,209.902122 369.703567,203.568235 C371.012946,197.231176 376.253633,189.038672 381.277675,178.660866 C386.302774,168.28306 379.530779,175.821137 378.655746,176.913259 C377.783884,178.005382 360.094055,200.508601 359.875297,214.818259 Z M365.115984,281.342576 C364.681638,273.806614 364.900396,268.782639 368.611889,261.243506 C374.637781,249.010254 367.519155,252.939992 364.244122,260.260278 C363.753765,261.354515 361.1107,267.414579 359.230647,274.588967 L359.230647,302.493593 C362.842801,301.440588 367.396565,303.854253 368.283223,304.830079 C368.684808,305.27306 369.561955,306.020525 370.248877,307.495366 C371.861559,306.821908 373.475297,306.106161 375.090092,305.392528 C371.690357,301.472305 365.551387,288.82779 365.115984,281.342576 Z M434.128402,284.728895 C435.657596,270.20039 439.14716,253.051002 443.190489,245.405087 C444.583355,242.767289 448.870806,237.320421 457.931836,232.949817 C466.99181,228.582385 458.695905,230.000135 457.385469,230.329992 C456.07609,230.656677 456.292734,230.875525 451.270806,232.843037 C446.245707,234.808434 440.131044,242.344396 436.529458,248.135922 C432.924703,253.926391 428.448085,276.428553 427.684016,279.704921 C426.919947,282.981288 420.586526,301.769388 421.788111,296.638633 C422.988639,291.502591 420.258917,281.671375 419.058388,277.300771 C417.856803,272.933339 413.161427,263.755493 408.903567,253.159897 C404.645707,242.565358 405.191017,232.843037 406.389432,227.05151 C407.594188,221.263156 412.507266,217.986789 417.310436,221.808688 C422.116777,225.632703 422.880845,222.135374 418.620872,218.095684 C414.361955,214.053879 409.667635,213.727194 404.973316,218.095684 C400.276882,222.464173 399.40502,230.112202 399.295112,236.773831 C399.184148,243.437576 402.898811,254.360914 402.243593,254.142067 C393.518626,251.235731 386.518362,254.690771 384.663672,256.328426 C382.805812,257.967138 376.036988,268.563792 381.277675,274.680946 C387.876354,282.379722 385.098018,273.587766 384.552708,272.714491 C384.007398,271.839102 384.882431,263.102122 390.123118,260.915763 C399.207398,257.129809 403.552972,263.208903 407.04782,266.59628 C410.260502,269.709833 418.043857,289.243283 410.888243,305.276232 C415.284544,306.239372 419.682959,306.740501 424.080317,307.770246 C429.18362,300.111645 433.400264,291.634746 434.128402,284.728895 Z M201.000793,286.368665 C199.905945,285.890795 198.472919,285.125358 196.836988,284.156932 L196.836988,292.079841 C207.116513,297.37341 214.11255,301.032496 219.161955,303.962091 L233.639102,303.962091 C226.565918,299.755358 206.758256,288.878537 201.000793,286.368665 Z M104.906737,141.594253 L107.078468,118.392202 L109.259709,141.593196 L116.801057,137.123211 L112.340291,144.672917 L135.532893,146.84659 L112.341347,149.029777 L116.809511,156.57314 L109.26288,152.111614 L107.091149,175.313665 L104.908851,152.112671 L97.455218,156.495962 L101.828269,149.030835 L78.6356671,146.858219 L101.827213,144.676089 L97.3590489,137.131669 L104.906737,141.594253 Z M26.2700132,208.716963 L28.4438573,185.51597 L30.6261559,208.716963 L38.1653897,204.245922 L33.7046235,211.796685 L56.8972259,213.9693 L33.7056803,216.152488 L38.1738441,223.697965 L30.6272127,219.234324 L28.4554822,242.436375 L26.2721268,219.236439 L18.8195509,223.618672 L23.1926024,216.15566 L0,213.981987 L23.1926024,211.7988 L18.722325,204.256494 L26.2700132,208.716963 Z M179.303567,69.9814706 L181.475297,46.7783625 L183.657596,69.9804134 L191.198943,65.5083148 L186.738177,73.0601351 L209.929723,75.2327504 L186.739234,77.415938 L191.207398,84.9593005 L183.659709,80.4977742 L181.486922,103.699825 L179.304624,80.4988315 L171.850991,84.8821224 L176.225099,77.4180525 L153.033554,75.2454372 L176.224042,73.0611924 L171.755878,65.5188871 L179.303567,69.9814706 Z M407.743197,141.594253 L405.57041,118.392202 L403.387054,141.593196 L395.846764,137.123211 L400.308587,144.672917 L377.113871,146.84659 L400.306473,149.029777 L395.836196,156.57314 L403.383884,152.111614 L405.555614,175.313665 L407.741083,152.112671 L415.193659,156.495962 L410.820608,149.030835 L434.01321,146.858219 L410.820608,144.676089 L415.289828,137.131669 L407.743197,141.594253 Z M486.378864,208.716963 L484.203963,185.51597 L482.022721,208.716963 L474.482431,204.245922 L478.944254,211.796685 L455.748481,213.9693 L478.94214,216.152488 L474.471863,223.697965 L482.020608,219.234324 L484.194452,242.436375 L486.37675,219.236439 L493.830383,223.618672 L489.454161,216.15566 L512.646764,213.981987 L489.457332,211.7988 L493.923382,204.256494 L486.378864,208.716963 Z M333.343197,69.9814706 L331.171466,46.7783625 L328.991281,69.9804134 L321.448877,65.5083148 L325.908587,73.0601351 L302.719155,75.2327504 L325.908587,77.415938 L321.442536,84.9593005 L328.989168,80.4977742 L331.158785,103.699825 L333.343197,80.4988315 L340.79683,84.8821224 L336.423778,77.4180525 L359.614267,75.2454372 L336.423778,73.0611924 L340.890885,65.5188871 L333.343197,69.9814706 Z M252.679524,23.7496979 L254.851255,0.547647059 L257.033554,23.7486407 L264.575958,19.2775994 L260.113078,26.8283625 L283.306737,29.002035 L260.113078,31.1852226 L264.583355,38.7285851 L257.035667,34.2660016 L254.863937,57.4680525 L252.680581,34.2670588 L245.226948,38.651407 L249.601057,31.1862798 L226.408454,29.0136645 L249.6,26.8294197 L245.131836,19.2871145 L252.679524,23.7496979 Z" id="path-3"></path>
    </defs>
    <g id="Page-1" stroke="none" stroke-width="1" fill="none" fill-rule="evenodd" sketch:type="MSPage">
        <g id="Eldarion_Vector" sketch:type="MSLayerGroup">
            <rect id="Rectangle-1" fill="#1B1C1E" sketch:type="MSShapeGroup" x="0" y="0" width="800" height="665"></rect>
            <g id="Group-6-+-Group" transform="translate(143.000000, 134.000000)">
                <g id="Group-6" transform="translate(6.340819, 283.338633)">
                    <g id="Fill-1">
                        <use fill="#E5E5E5" fill-rule="evenodd" sketch:type="MSShapeGroup" xlink:href="#path-1"></use>
                        <use fill="none" xlink:href="#path-1"></use>
                    </g>
                </g>
                <g id="Group">
                    <g id="Fill-13">
                        <use fill="#989898" sketch:type="MSShapeGroup" xlink:href="#path-3"></use>
                        <use fill="url(#radialGradient-2)" xlink:href="#path-3"></use>
                    </g>
                </g>
            </g>
        </g>
    </g>
</svg>