<?xml version="1.0" encoding="UTF-8" standalone="no"?>
<!-- Created with Inkscape (http://www.inkscape.org/) -->

<svg
   xmlns:dc="http://purl.org/dc/elements/1.1/"
   xmlns:cc="http://creativecommons.org/ns#"
   xmlns:rdf="http://www.w3.org/1999/02/22-rdf-syntax-ns#"
   xmlns:svg="http://www.w3.org/2000/svg"
   xmlns="http://www.w3.org/2000/svg"
   xmlns:sodipodi="http://sodipodi.sourceforge.net/DTD/sodipodi-0.dtd"
   xmlns:inkscape="http://www.inkscape.org/namespaces/inkscape"
   version="1.1"
   width="306"
   height="35"
   id="svg2"
   inkscape:version="0.48.5 r10040"
   sodipodi:docname="logo.plain.svg">
  <sodipodi:namedview
     pagecolor="#ffffff"
     bordercolor="#666666"
     borderopacity="1"
     objecttolerance="10"
     gridtolerance="10"
     guidetolerance="10"
     inkscape:pageopacity="0"
     inkscape:pageshadow="2"
     inkscape:window-width="1855"
     inkscape:window-height="1056"
     id="namedview20"
     showgrid="false"
     inkscape:zoom="5.3980439"
     inkscape:cx="110.40394"
     inkscape:cy="0.16313656"
     inkscape:window-x="1985"
     inkscape:window-y="24"
     inkscape:window-maximized="1"
     inkscape:current-layer="svg2" />
  <defs
     id="defs4" />
  <metadata
     id="metadata7">
    <rdf:RDF>
      <cc:Work
         rdf:about="">
        <dc:format>image/svg+xml</dc:format>
        <dc:type
           rdf:resource="http://purl.org/dc/dcmitype/StillImage" />
        <dc:title></dc:title>
      </cc:Work>
    </rdf:RDF>
  </metadata>
  <g
     transform="translate(-162.35547,-312.1811)"
     id="layer1">
    <g
       id="text2985"
       style="font-size:16.6581459px;font-style:normal;font-variant:normal;font-weight:normal;font-stretch:normal;line-height:125%;letter-spacing:0px;word-spacing:0px;fill:#000000;fill-opacity:1;stroke:none;font-family:Caudex;-inkscape-font-specification:Caudex">
      <path
         d="m 169.18792,342.87829 c -1e-5,1.0574 0.40668,1.73251 1.22008,2.02533 0.81337,0.27655 1.22006,0.61817 1.22008,1.02486 -2e-5,0.34163 -0.16269,0.51244 -0.48804,0.51244 l -8.27213,0 c -0.34163,0 -0.51244,-0.17081 -0.51244,-0.51244 0,-0.40669 0.39856,-0.74831 1.19568,-1.02486 0.79712,-0.29282 1.19567,-0.96793 1.19568,-2.02533 l 0.0488,-27.11016 c 0,-1.0411 -0.4067,-1.70808 -1.22008,-2.00093 -0.81339,-0.29278 -1.22008,-0.65067 -1.22008,-1.07367 0,-0.34159 0.17081,-0.5124 0.51244,-0.51243 l 14.39693,0 c 1.67556,3e-5 3.42433,0.30099 5.24634,0.90286 1.82196,0.58567 3.22912,1.73254 4.22147,3.44062 0.78083,1.38278 1.17125,3.04209 1.17128,4.97792 -0.0326,1.83828 -0.56126,3.48945 -1.5861,4.95352 -0.87849,1.25264 -2.1311,2.18803 -3.75785,2.80619 -1.61052,0.60192 -3.08275,0.90287 -4.41668,0.90285 l -8.95538,0 0,12.71323 m 0,-28.67186 0,14.25052 5.66116,0 c 1.12246,2e-5 2.2612,-0.16266 3.41623,-0.48803 1.15498,-0.32533 2.14731,-0.90284 2.97699,-1.73251 1.30139,-1.25259 1.9521,-2.9119 1.95212,-4.97792 -2e-5,-1.98464 -0.67513,-3.64394 -2.02533,-4.97793 -1.44784,-1.38272 -3.39183,-2.0741 -5.83197,-2.07413 l -6.1492,0"
         id="path4179"
         style="font-size:49.97443771px;letter-spacing:0px;fill:#1a1a1a;fill-opacity:1" />
      <path
         d="m 197.52086,344.65689 8.10404,0 c 1.17668,0 2.16992,-0.44917 2.9797,-1.34751 0.82241,-0.91099 1.44239,-1.61954 1.85995,-2.12565 0.22772,-0.27835 0.40486,-0.41753 0.53141,-0.41754 0.26568,1e-5 0.39854,0.13286 0.39856,0.39856 -2e-5,0.16449 -0.0127,0.29735 -0.038,0.39856 l -1.38547,4.87761 -17.38477,0 c -0.26571,0 -0.39856,-0.13285 -0.39856,-0.39856 0,-0.31632 0.31632,-0.58202 0.94895,-0.79712 0.63263,-0.22775 0.94895,-0.75283 0.94895,-1.57526 l 0,-21.08567 c 0,-0.80975 -0.31632,-1.32851 -0.94895,-1.55628 -0.63263,-0.22773 -0.94895,-0.50608 -0.94895,-0.83508 0,-0.26568 0.13285,-0.39853 0.39856,-0.39856 l 6.43389,0 c 0.25304,3e-5 0.37957,0.13288 0.37958,0.39856 -1e-5,0.329 -0.31633,0.60735 -0.94895,0.83508 -0.63265,0.22777 -0.94896,0.74653 -0.94895,1.55628 l 0.019,22.07258"
         id="path4181"
         style="font-size:38.86900711px;letter-spacing:1.38817883px;fill:#1a1a1a;fill-opacity:1" />
      <path
         d="m 218.837,335.28126 0,-12.71593 c 0,-0.80975 -0.31632,-1.32218 -0.94895,-1.5373 -0.63264,-0.22773 -0.94895,-0.50608 -0.94895,-0.83508 0,-0.26568 0.13285,-0.39853 0.39856,-0.39856 l 6.43388,0 c 0.25305,3e-5 0.37957,0.13288 0.37958,0.39856 -1e-5,0.329 -0.31,0.60103 -0.92997,0.8161 -0.61999,0.20247 -0.92998,0.70857 -0.92997,1.51832 l 0,10.22968 c -1e-5,1.93587 0.0633,3.65031 0.18979,5.14331 0.12652,1.49303 0.45549,2.75197 0.98691,3.77683 0.51875,1.02487 1.31587,1.80301 2.39135,2.33442 1.07547,0.53141 2.56215,0.79711 4.46007,0.79711 3.34029,0 5.60511,-1.31587 6.79448,-3.94763 0.84771,-1.84728 1.27157,-4.54863 1.2716,-8.10404 l 0,-10.17274 c -3e-5,-0.80975 -0.31634,-1.32851 -0.94895,-1.55628 -0.63266,-0.22773 -0.94898,-0.50608 -0.94895,-0.83508 -3e-5,-0.26568 0.13283,-0.39853 0.39856,-0.39856 l 4.83964,0 c 0.25303,3e-5 0.37956,0.13288 0.37958,0.39856 -2e-5,0.329 -0.31634,0.60735 -0.94895,0.83508 -0.62,0.22777 -0.92999,0.74653 -0.92997,1.55628 l 0,12.69695 c -0.0127,1.88526 -0.18981,3.61235 -0.53141,5.18127 -0.329,1.55628 -0.94265,2.86583 -1.84096,3.92866 -1.60692,1.85994 -4.11847,2.78991 -7.53467,2.78991 -2.16362,0 -4.00458,-0.20244 -5.52289,-0.60733 -1.51833,-0.40488 -2.73299,-1.13874 -3.64397,-2.20156 -1.54363,-1.78403 -2.31544,-4.81434 -2.31544,-9.09095"
         id="path4183"
         style="font-size:38.86900711px;letter-spacing:1.38817883px;fill:#1a1a1a;fill-opacity:1" />
      <path
         d="m 261.58044,339.07706 0,-0.20877 c -0.038,-1.42974 -0.58204,-2.52419 -1.6322,-3.28336 -0.48081,-0.35427 -1.22732,-0.67058 -2.23952,-0.94895 -1.01222,-0.291 -2.22055,-0.51243 -3.62499,-0.66427 -1.3918,-0.15182 -2.68237,-0.51242 -3.87172,-1.0818 -1.18935,-0.56936 -2.06238,-1.36648 -2.6191,-2.39136 -0.55672,-1.0375 -0.83508,-2.16359 -0.83508,-3.37826 0,-2.37868 0.83508,-4.33352 2.50523,-5.86451 1.6828,-1.5436 3.81478,-2.31542 6.39593,-2.31544 l 0.56937,0 c 2.82153,0.12655 5.21921,0.82877 7.19304,2.10667 l -0.45549,3.98559 c -0.0253,0.22777 -0.14553,0.34164 -0.3606,0.34162 l -0.0759,0 c -0.1645,-0.0126 -0.32266,-0.18977 -0.47448,-0.53141 -0.54408,-1.13872 -1.33487,-2.10665 -2.37237,-2.90379 -1.03753,-0.80975 -2.15729,-1.23994 -3.35929,-1.29057 l -0.30366,0 c -1.16406,2e-5 -2.12566,0.18349 -2.88481,0.55039 -0.74651,0.3543 -1.29058,0.7149 -1.63219,1.0818 -0.34163,0.3543 -0.62632,0.76551 -0.85406,1.23364 -0.22775,0.46817 -0.39224,0.94264 -0.49345,1.42342 -0.10123,0.48083 -0.15184,0.93632 -0.15184,1.36649 0,0.43021 0.0759,0.85408 0.22775,1.27159 0.2657,0.84775 0.68324,1.48038 1.25262,1.89791 0.56936,0.4049 1.07547,0.66428 1.51832,0.77813 0.45549,0.11389 0.91098,0.21512 1.36649,0.30367 0.45548,0.0759 0.98689,0.1645 1.59423,0.2657 0.60732,0.0886 1.30954,0.19614 2.10667,0.32265 0.80976,0.11389 1.72075,0.32898 2.73298,0.64528 1.0122,0.31634 1.78401,0.77183 2.31544,1.36649 0.54405,0.59469 0.97424,1.25896 1.29057,1.9928 0.3163,0.72121 0.47446,1.58159 0.47448,2.58114 -2e-5,2.70768 -1.1008,4.95985 -3.30235,6.75653 -1.13876,0.9363 -2.33443,1.60056 -3.58703,1.9928 -1.23998,0.40488 -2.24586,0.61998 -3.01767,0.64528 -0.77182,0.038 -1.29058,0.0569 -1.55627,0.0569 -1.75873,0 -3.44154,-0.24673 -5.04842,-0.74018 l -1.80301,-5.01046 c -0.0253,-0.0633 -0.038,-0.13917 -0.0379,-0.22775 -1e-5,-0.10121 0.0443,-0.22141 0.13285,-0.3606 0.10122,-0.15183 0.23407,-0.22774 0.39856,-0.22775 0.15183,0.038 0.30999,0.22143 0.47447,0.55039 0.80977,1.75873 1.77137,2.91012 2.88481,3.45418 1.12608,0.54407 2.46727,0.8161 4.02355,0.8161 0.32896,0 0.83507,-0.019 1.51832,-0.0569 0.69589,-0.0506 1.51198,-0.30999 2.44829,-0.77814 0.94894,-0.48079 1.71443,-1.18302 2.29646,-2.10667 0.58201,-0.93629 0.87302,-2.07503 0.87304,-3.41622"
         id="path4185"
         style="font-size:38.86900711px;letter-spacing:1.38817883px;fill:#1a1a1a;fill-opacity:1" />
      <path
         d="m 275.38088,322.58431 0,8.88217 16.03726,0 0,-8.88217 c -2e-5,-0.80975 -0.31634,-1.32851 -0.94895,-1.55628 -0.63265,-0.22773 -0.94897,-0.50608 -0.94895,-0.83508 -2e-5,-0.26568 0.13283,-0.39853 0.39856,-0.39856 l 6.43389,0 c 0.26567,3e-5 0.39853,0.13288 0.39856,0.39856 -3e-5,0.329 -0.32268,0.60735 -0.96793,0.83508 -0.63267,0.22777 -0.94898,0.74653 -0.94895,1.55628 l 0,21.08567 c -3e-5,0.82243 0.31628,1.34751 0.94895,1.57526 0.64525,0.2151 0.9679,0.4808 0.96793,0.79712 -3e-5,0.26571 -0.13289,0.39856 -0.39856,0.39856 l -6.43389,0 c -0.26573,0 -0.39858,-0.13285 -0.39856,-0.39856 -2e-5,-0.31632 0.3163,-0.58202 0.94895,-0.79712 0.63261,-0.22775 0.94893,-0.75283 0.94895,-1.57526 l 0,-10.45743 -16.03726,0 0,10.45743 c 0,0.82243 0.31631,1.34751 0.94895,1.57526 0.63263,0.2151 0.94894,0.4808 0.94895,0.79712 -10e-6,0.26571 -0.12653,0.39856 -0.37958,0.39856 l -6.43388,0 c -0.26571,0 -0.39856,-0.13285 -0.39856,-0.39856 0,-0.31632 0.31631,-0.58202 0.94895,-0.79712 0.63263,-0.22775 0.94895,-0.75283 0.94895,-1.57526 l 0,-21.08567 c 0,-0.80975 -0.31632,-1.32851 -0.94895,-1.55628 -0.63264,-0.22773 -0.94895,-0.50608 -0.94895,-0.83508 0,-0.26568 0.13285,-0.39853 0.39856,-0.39856 l 6.43388,0 c 0.25305,3e-5 0.37957,0.13288 0.37958,0.39856 -10e-6,0.329 -0.31632,0.60735 -0.94895,0.83508 -0.63264,0.22777 -0.94895,0.74653 -0.94895,1.55628"
         id="path4187"
         style="font-size:38.86900711px;letter-spacing:1.38817883px;fill:#1a1a1a;fill-opacity:1" />
      <path
         d="m 330.45796,344.684 c 0.45547,0.37416 1.04924,0.59378 1.78132,0.65885 0.45546,0.0488 0.68321,0.21961 0.68324,0.51243 l 0,0.0732 c -0.0488,0.34163 -0.21965,0.51244 -0.51243,0.51244 l -6.51523,0 c -0.14643,0 -0.69953,-0.63444 -1.6593,-1.90333 -0.95982,-1.26887 -2.07416,-2.78177 -3.34302,-4.53869 -1.2689,-1.75691 -2.57032,-3.55449 -3.90425,-5.39275 -1.33397,-1.83824 -2.44831,-3.3186 -3.34302,-4.44109 l -3.90425,0 0,12.71323 c -10e-6,1.0574 0.40668,1.73251 1.22008,2.02533 0.81337,0.27655 1.22006,0.61817 1.22008,1.02486 -2e-5,0.34163 -0.16269,0.51244 -0.48804,0.51244 l -8.27213,0 c -0.34163,0 -0.51244,-0.17081 -0.51243,-0.51244 -10e-6,-0.40669 0.40668,-0.74831 1.22007,-1.02486 0.81339,-0.29282 1.22008,-0.96793 1.22008,-2.02533 l 0,-27.11016 c 0,-1.0411 -0.40669,-1.70808 -1.22008,-2.00093 -0.81339,-0.29278 -1.22008,-0.65067 -1.22007,-1.07367 -10e-6,-0.34159 0.1708,-0.5124 0.51243,-0.51243 l 14.39693,0 c 1.67556,3e-5 3.42433,0.30099 5.24634,0.90286 1.82196,0.58567 3.22912,1.73254 4.22147,3.44062 0.78083,1.38278 1.17125,3.04209 1.17128,4.97792 -0.0326,1.83828 -0.56126,3.48945 -1.5861,4.95352 -0.81341,1.15503 -1.94402,2.04162 -3.39182,2.65978 -1.44785,0.60192 -2.82247,0.94354 -4.12387,1.02486 l 11.10272,14.54334 m -20.71694,-30.47757 0,14.25052 5.66116,0 c 1.12246,2e-5 2.2612,-0.16266 3.41623,-0.48803 1.15498,-0.32533 2.14731,-0.90284 2.97699,-1.73251 1.30139,-1.25259 1.9521,-2.9119 1.95213,-4.97792 -3e-5,-1.98464 -0.67514,-3.64394 -2.02534,-4.97793 -1.44784,-1.38272 -3.39183,-2.0741 -5.83197,-2.07413 l -6.1492,0"
         id="path4189"
         style="font-size:49.97443771px;letter-spacing:0px;fill:#660000;fill-opacity:1" />
      <path
         d="m 337.46121,335.28126 0,-12.71593 c 0,-0.80975 -0.31632,-1.32218 -0.94895,-1.5373 -0.63263,-0.22773 -0.94895,-0.50608 -0.94895,-0.83508 0,-0.26568 0.13285,-0.39853 0.39856,-0.39856 l 6.43389,0 c 0.25304,3e-5 0.37957,0.13288 0.37958,0.39856 -1e-5,0.329 -0.31,0.60103 -0.92998,0.8161 -0.61998,0.20247 -0.92997,0.70857 -0.92997,1.51832 l 0,10.22968 c 0,1.93587 0.0633,3.65031 0.18979,5.14331 0.12652,1.49303 0.45549,2.75197 0.98691,3.77683 0.51875,1.02487 1.31587,1.80301 2.39136,2.33442 1.07546,0.53141 2.56215,0.79711 4.46006,0.79711 3.34029,0 5.60512,-1.31587 6.79449,-3.94763 0.8477,-1.84728 1.27157,-4.54863 1.27159,-8.10404 l 0,-10.17274 c -2e-5,-0.80975 -0.31634,-1.32851 -0.94895,-1.55628 -0.63265,-0.22773 -0.94897,-0.50608 -0.94895,-0.83508 -2e-5,-0.26568 0.13283,-0.39853 0.39856,-0.39856 l 4.83965,0 c 0.25302,3e-5 0.37955,0.13288 0.37958,0.39856 -3e-5,0.329 -0.31635,0.60735 -0.94895,0.83508 -0.62001,0.22777 -0.93,0.74653 -0.92997,1.55628 l 0,12.69695 c -0.0127,1.88526 -0.18982,3.61235 -0.53142,5.18127 -0.32899,1.55628 -0.94265,2.86583 -1.84096,3.92866 -1.60691,1.85994 -4.11846,2.78991 -7.53467,2.78991 -2.16362,0 -4.00458,-0.20244 -5.52289,-0.60733 -1.51833,-0.40488 -2.73298,-1.13874 -3.64397,-2.20156 -1.54363,-1.78403 -2.31544,-4.81434 -2.31544,-9.09095"
         id="path4191"
         style="font-size:38.86900711px;letter-spacing:1.38817883px;fill:#660000;fill-opacity:1" />
      <path
         d="m 380.03385,347.14314 c -3.88438,0 -7.32591,-1.23996 -10.32458,-3.71988 -2.99869,-2.47992 -4.49803,-5.90879 -4.49803,-10.28663 0,-4.26393 1.45506,-7.68015 4.36518,-10.24866 2.92276,-2.58112 6.40856,-3.87169 10.45743,-3.87172 1.45504,3e-5 2.99866,0.16451 4.63088,0.49346 1.64482,0.31634 3.20743,0.94897 4.68781,1.8979 l -0.45549,3.98559 c -0.0506,0.22777 -0.17717,0.34164 -0.37958,0.34162 l -0.0569,0 c -0.15186,-0.0126 -0.31634,-0.18977 -0.49346,-0.53141 -0.82244,-1.7587 -1.84731,-2.92907 -3.07459,-3.51112 -1.21468,-0.582 -2.83422,-0.87301 -4.85863,-0.87303 -2.82156,2e-5 -5.33311,0.9806 -7.53467,2.94174 -2.20157,1.96119 -3.30235,5.0864 -3.30234,9.37563 -1e-5,2.7583 1.02486,5.42168 3.0746,7.99017 2.06237,2.56849 4.64984,3.92865 7.76241,4.08048 0.30365,0.0127 0.59466,0.019 0.87303,0.019 1.44239,0 2.65705,-0.18979 3.64397,-0.56937 1.17668,-0.45549 2.16359,-1.37914 2.96073,-2.77093 l 0,-3.56806 c -0.0253,-0.39222 -0.22777,-0.69589 -0.60733,-0.91099 -0.34164,-0.17713 -0.84142,-0.39855 -1.49934,-0.66426 -0.65796,-0.27835 -0.98693,-0.55039 -0.98691,-0.8161 -2e-5,-0.2657 0.13283,-0.39855 0.39856,-0.39856 l 7.61058,0 c 0.26568,1e-5 0.39853,0.13286 0.39856,0.39856 -3e-5,0.32898 -0.31634,0.60734 -0.94895,0.83507 -0.63266,0.22776 -0.94898,0.74652 -0.94895,1.55628 l 0,7.38284 c -1.94854,0.0886 -3.82746,0.3606 -5.63677,0.81609 -0.91101,0.2404 -1.80935,0.40489 -2.69501,0.49346 -0.88571,0.0886 -1.73976,0.13285 -2.56217,0.13285"
         id="path4193"
         style="font-size:38.86900711px;letter-spacing:1.38817883px;fill:#660000;fill-opacity:1" />
      <path
         d="m 411.276,339.07706 0,-0.20877 c -0.038,-1.42974 -0.58204,-2.52419 -1.6322,-3.28336 -0.48081,-0.35427 -1.22732,-0.67058 -2.23952,-0.94895 -1.01223,-0.291 -2.22056,-0.51243 -3.62499,-0.66427 -1.3918,-0.15182 -2.68237,-0.51242 -3.87172,-1.0818 -1.18935,-0.56936 -2.06239,-1.36648 -2.6191,-2.39136 -0.55672,-1.0375 -0.83508,-2.16359 -0.83508,-3.37826 0,-2.37868 0.83507,-4.33352 2.50523,-5.86451 1.6828,-1.5436 3.81477,-2.31542 6.39593,-2.31544 l 0.56937,0 c 2.82153,0.12655 5.21921,0.82877 7.19304,2.10667 l -0.4555,3.98559 c -0.0253,0.22777 -0.14552,0.34164 -0.3606,0.34162 l -0.0759,0 c -0.16451,-0.0126 -0.32266,-0.18977 -0.47448,-0.53141 -0.54408,-1.13872 -1.33487,-2.10665 -2.37238,-2.90379 -1.03753,-0.80975 -2.15729,-1.23994 -3.35928,-1.29057 l -0.30366,0 c -1.16406,2e-5 -2.12566,0.18349 -2.88481,0.55039 -0.74652,0.3543 -1.29058,0.7149 -1.6322,1.0818 -0.34163,0.3543 -0.62631,0.76551 -0.85405,1.23364 -0.22776,0.46817 -0.39224,0.94264 -0.49346,1.42342 -0.10122,0.48083 -0.15183,0.93632 -0.15183,1.36649 0,0.43021 0.0759,0.85408 0.22775,1.27159 0.2657,0.84775 0.68324,1.48038 1.25261,1.89791 0.56937,0.4049 1.07547,0.66428 1.51832,0.77813 0.45549,0.11389 0.91099,0.21512 1.36649,0.30367 0.45549,0.0759 0.9869,0.1645 1.59424,0.2657 0.60732,0.0886 1.30954,0.19614 2.10667,0.32265 0.80976,0.11389 1.72075,0.32898 2.73298,0.64528 1.01219,0.31634 1.78401,0.77183 2.31544,1.36649 0.54404,0.59469 0.97423,1.25896 1.29057,1.9928 0.3163,0.72121 0.47445,1.58159 0.47447,2.58114 -2e-5,2.70768 -1.1008,4.95985 -3.30234,6.75653 -1.13876,0.9363 -2.33444,1.60056 -3.58704,1.9928 -1.23997,0.40488 -2.24586,0.61998 -3.01766,0.64528 -0.77182,0.038 -1.29058,0.0569 -1.55628,0.0569 -1.75873,0 -3.44153,-0.24673 -5.04841,-0.74018 l -1.80301,-5.01046 c -0.0253,-0.0633 -0.038,-0.13917 -0.038,-0.22775 0,-0.10121 0.0443,-0.22141 0.13286,-0.3606 0.10122,-0.15183 0.23407,-0.22774 0.39856,-0.22775 0.15183,0.038 0.30998,0.22143 0.47447,0.55039 0.80977,1.75873 1.77137,2.91012 2.88481,3.45418 1.12608,0.54407 2.46726,0.8161 4.02355,0.8161 0.32896,0 0.83507,-0.019 1.51832,-0.0569 0.69589,-0.0506 1.51198,-0.30999 2.44829,-0.77814 0.94894,-0.48079 1.71442,-1.18302 2.29646,-2.10667 0.58201,-0.93629 0.87302,-2.07503 0.87304,-3.41622"
         id="path4195"
         style="font-size:38.86900711px;letter-spacing:1.38817883px;fill:#660000;fill-opacity:1" />
      <path
         d="m 419.95619,343.63474 c 0.89472,0 1.34208,0.35382 1.34209,1.06146 l 0,1.00047 c -10e-6,0.69951 -0.44737,1.04927 -1.34209,1.04927 -0.89473,0 -1.34209,-0.34976 -1.34209,-1.04927 l 0,-1.00047 c 0,-0.70764 0.44736,-1.06146 1.34209,-1.06146"
         id="path4197"
         style="font-size:24.98721886px;fill:#333333;fill-opacity:1" />
      <path
         d="m 429.70463,334.77696 c 1.32581,1e-5 2.54589,0.3579 3.66023,1.07367 l -0.20741,2.06194 c -0.0163,0.10574 -0.0651,0.15861 -0.14641,0.15861 -0.008,0 -0.0163,0 -0.0244,0 -0.0976,-0.008 -0.17896,-0.0895 -0.24402,-0.24402 -0.32536,-0.70764 -0.75239,-1.216 -1.28108,-1.5251 -0.52057,-0.31721 -1.15502,-0.47582 -1.90332,-0.47583 l -0.29282,0 c -0.89473,0.0488 -1.56984,0.29283 -2.02533,0.73205 -0.87033,0.82153 -1.30549,2.005 -1.30549,3.55043 0,0.23589 0.0122,0.48397 0.0366,0.74425 0.0813,1.21195 0.41076,2.20428 0.98827,2.97699 0.75644,1.0086 1.60236,1.5861 2.53776,1.73251 0.16267,0.0163 0.32128,0.0244 0.47583,0.0244 0.80525,0 1.50476,-0.17894 2.09854,-0.53683 0.6019,-0.36602 0.96792,-0.54904 1.09807,-0.54904 0.13827,0 0.22774,0.004 0.26842,0.0122 0.0163,0.0407 0.0244,0.10575 0.0244,0.19522 -10e-6,0.0895 -0.0569,0.23588 -0.17081,0.43922 -0.10575,0.19522 -0.23589,0.36196 -0.39043,0.50024 -0.90286,0.73204 -2.11074,1.09807 -3.62363,1.09807 -1.5129,0 -2.78585,-0.4189 -3.81885,-1.25668 -1.21195,-1.02487 -1.81792,-2.5215 -1.81792,-4.48989 0,-0.44736 0.0325,-0.92319 0.0976,-1.4275 0.34975,-1.79757 1.28108,-3.13152 2.79398,-4.00186 0.84592,-0.47988 1.81791,-0.74423 2.91599,-0.79305 l 0.25622,0"
         id="path4199"
         style="font-size:24.98721886px;fill:#333333;fill-opacity:1" />
      <path
         d="m 446.70033,340.84076 c -2e-5,1.62677 -0.58159,3.00546 -1.74472,4.13606 -1.15501,1.13061 -2.57437,1.72031 -4.25807,1.76912 l -0.19522,0 c -1.5617,0 -2.92005,-0.58564 -4.07506,-1.75692 -1.14687,-1.17127 -1.72031,-2.56623 -1.72031,-4.18487 l 0,-0.0366 c 0.008,-1.78131 0.67918,-3.27794 2.01313,-4.48989 0.15454,-0.1464 0.38229,-0.27247 0.68324,-0.37822 0.30909,-0.10573 0.70358,-0.24401 1.18348,-0.41483 0.47989,-0.17894 0.92726,-0.34161 1.34209,-0.48803 0.42295,-0.1464 0.76457,-0.21961 1.02486,-0.21962 l 0.0366,0 c 1.58609,0.0651 2.92818,0.67919 4.02626,1.84232 1.09806,1.15502 1.65929,2.53777 1.68371,4.14827 l 0,0.0732 m -6.1126,-5.24634 c -0.95167,1e-5 -1.78132,0.47584 -2.48896,1.42749 -0.69952,0.94353 -1.04927,2.12701 -1.04927,3.55043 0,1.42343 0.35382,2.65977 1.06147,3.70904 0.71577,1.04113 1.58203,1.5861 2.59877,1.6349 l 0.17081,0 c 0.94352,0 1.76504,-0.47176 2.46456,-1.41529 0.6995,-0.94352 1.04926,-2.127 1.04927,-3.55043 -10e-6,-1.42342 -0.3579,-2.65569 -1.07367,-3.69684 -0.71579,-1.04925 -1.57798,-1.60236 -2.58657,-1.6593 l -0.14641,0"
         id="path4201"
         style="font-size:24.98721886px;fill:#333333;fill-opacity:1" />
      <path
         d="m 456.63176,334.70376 c 0.68323,1e-5 1.33394,0.23182 1.95212,0.69544 0.21147,0.17082 0.38228,0.34164 0.51244,0.51244 0.36601,-0.13827 0.69543,-0.26028 0.98826,-0.36603 0.30094,-0.11386 0.70357,-0.26027 1.20788,-0.43923 0.51242,-0.17893 0.99232,-0.28874 1.43969,-0.32942 0.45548,-0.0488 0.7361,-0.0732 0.84186,-0.0732 0.67509,1e-5 1.32173,0.23182 1.93992,0.69544 0.99231,0.75646 1.48848,2.37917 1.4885,4.86812 l 0,4.39228 c -2e-5,0.5287 0.20333,0.86626 0.61004,1.01267 0.40667,0.13827 0.61002,0.30095 0.61004,0.48803 -2e-5,0.18708 -0.0854,0.28062 -0.25622,0.28062 l -2.96479,0 c -0.13016,0 -0.19523,-0.0529 -0.19521,-0.15861 l 0,-6.01499 c -2e-5,-1.78131 -0.37011,-3.03392 -1.11028,-3.75785 -0.47177,-0.46362 -1.04928,-0.69543 -1.73251,-0.69544 -0.39044,10e-6 -0.74426,0.0529 -1.06147,0.15861 -0.3091,0.10575 -0.58158,0.20336 -0.81745,0.29282 -0.22776,0.0813 -0.43924,0.15862 -0.63444,0.23181 0.40668,0.8378 0.61003,2.09448 0.61004,3.77005 l 0,4.39228 c -10e-6,0.5287 0.20333,0.86626 0.61004,1.01267 0.40668,0.13827 0.61002,0.30095 0.61004,0.48803 -2e-5,0.18708 -0.0813,0.28062 -0.24402,0.28062 l -4.13607,0 c -0.17082,0 -0.25622,-0.0935 -0.25621,-0.28062 -10e-6,-0.18708 0.20334,-0.34976 0.61004,-0.48803 0.40668,-0.14641 0.61003,-0.48397 0.61004,-1.01267 l 0,-4.39228 c -10e-6,-1.78131 -0.3701,-3.03392 -1.11027,-3.75785 -0.47178,-0.46362 -1.04928,-0.69543 -1.73252,-0.69544 -0.39043,10e-6 -0.77272,0.0651 -1.14687,0.19521 -0.37416,0.12202 -0.69952,0.23589 -0.97606,0.34162 -0.26843,0.10575 -0.53684,0.20743 -0.80526,0.30502 l 0,8.00372 c 0,0.5287 0.20334,0.86626 0.61004,1.01267 0.40669,0.13827 0.61004,0.30095 0.61004,0.48803 0,0.18708 -0.0813,0.28062 -0.24401,0.28062 l -4.13607,0 c -0.17081,0 -0.25622,-0.0935 -0.25622,-0.28062 0,-0.18708 0.20335,-0.34976 0.61004,-0.48803 0.40669,-0.14641 0.61004,-0.48397 0.61004,-1.01267 l 0,-7.8085 c 0,-0.51243 -0.20335,-0.84185 -0.61004,-0.98827 -0.40669,-0.1464 -0.61004,-0.32534 -0.61004,-0.53683 0,-0.1708 0.0854,-0.25621 0.25622,-0.25622 0.53683,-0.0244 1.06553,-0.10573 1.5861,-0.24401 0.5287,-0.1464 1.05333,-0.30908 1.5739,-0.48804 l 0,1.59831 c 0.38229,-0.1464 0.72391,-0.27654 1.02487,-0.39043 0.30908,-0.11386 0.71984,-0.26027 1.23228,-0.43923 0.51243,-0.17893 0.99232,-0.28874 1.43969,-0.32942 0.45549,-0.0488 0.73611,-0.0732 0.84186,-0.0732"
         id="path4203"
         style="font-size:24.98721886px;fill:#333333;fill-opacity:1" />
    </g>
  </g>
</svg>
