<?xml version="1.0" encoding="UTF-8" standalone="no"?>
<svg width="258px" height="214px" viewBox="0 0 258 214" version="1.1" xmlns="http://www.w3.org/2000/svg" xmlns:xlink="http://www.w3.org/1999/xlink" xmlns:sketch="http://www.bohemiancoding.com/sketch/ns">
    <title>pony</title>
    <description>Created with Sketch (http://www.bohemiancoding.com/sketch)</description>
    <defs></defs>
    <g id="Page-1" stroke="none" stroke-width="1" fill="none" fill-rule="evenodd" sketch:type="MSPage">
        <path d="M-106,-156 C-97.52,-144.998 -108.36,-136.642 -99.879,-125.64 C-91.398,-114.637 -80.557,-122.993 -72.076,-111.99 C-63.594,-100.987 -74.434,-92.63 -65.952,-81.627 C-57.471,-70.624 -46.631,-78.98 -38.148,-67.977 C-29.666,-56.973 -40.506,-48.617 -32.024,-37.613 C-23.541,-26.608 -12.7,-34.964 -4.217,-23.959 C4.266,-12.954 -6.574,-4.597 1.909,6.408" id="Shape" stroke="#FDEAEC" stroke-width="4.0006" sketch:type="MSShapeGroup" transform="translate(-52.000000, -75.000000) rotate(35.000000) translate(52.000000, 75.000000) "></path>
        <g id="Group" sketch:type="MSLayerGroup" transform="translate(2.603621, 2.000000)" fill="#2D97BF">
            <path d="M54.709,63.119 C47.416,64.765 39.187,60.642 39.187,60.642 C38.81,71.595 44.407,76.8 48.849,79.199 C64.847,84.417 78.203,76.126 85.403,71.651 C86.854,70.749 88.033,70.097 88.959,69.557 C92.068,67.742 95.665,64.931 97.569,64.163 C96.636,59.456 94.755,46.331 98.098,37.275 C76.361,40.271 68.577,59.987 54.709,63.119 L54.709,63.119 Z" id="Shape" sketch:type="MSShapeGroup"></path>
            <path d="M238.933,51.222 C222.353,53.662 210.756,58.853 202.651,65.133 C186.945,26.841 149.265,-0.201 105.381,-0.201 C47.437,-0.201 0.297,46.939 0.297,104.883 C0.297,162.826 47.437,209.967 105.381,209.967 C163.325,209.967 210.465,162.826 210.465,104.883 C210.465,104.525 210.455,104.169 210.451,103.81 C227.23,107.838 215.428,93.716 215.428,93.716 C244.103,100.18 226.458,83.448 226.458,83.448 C252.437,87.633 235.625,72.886 235.625,72.886 C259.392,71.511 240.035,61.615 240.035,61.615 C265.897,51.505 238.933,51.222 238.933,51.222 L238.933,51.222 Z M184.293,106.047 C180.026,102.242 176.032,97.263 171.855,91.244 C161.458,76.26 149.709,51.222 130.859,43.278 C127.31,41.781 123.988,40.597 120.85,39.659 C122.178,48.46 119.231,59.793 117.867,64.228 C121.94,66.05 131.675,73.294 141.988,90.276 C146.667,97.981 150.813,104.636 155.068,110.239 C158.797,115.929 165.32,124.642 173.703,130.864 C159.14,124.26 150.416,111.334 138.804,92.211 C126.682,72.248 114.53,68.389 114.408,68.353 C113.925,68.207 113.516,67.869 113.286,67.419 C113.055,66.97 113.013,66.443 113.176,65.965 C115.37,59.541 120.63,41.397 115.82,34.672 C114.586,32.946 112.153,31.484 109.661,31.484 C107.058,31.484 104.444,33.019 102.948,34.9 C97.466,41.791 100.689,59.793 102.155,66.148 C102.364,67.058 101.869,67.982 100.994,68.311 C100.946,68.329 89.995,74.248 86.512,76.276 C79.314,80.467 68.427,88.042 53.243,85.89 C50.353,93.725 41.05,97.271 41.05,97.271 C41.05,97.271 14.972,104.882 31.115,137.009 C36.615,147.954 45.658,153.026 56.077,155.352 C74.618,154.667 75.327,140.527 75.435,139.928 C75.616,138.918 76.578,138.244 77.59,138.417 C78.6,138.594 79.278,139.55 79.106,140.562 C79.08,140.711 79.689,152.35 65.872,157.391 C91.293,159.448 108.574,155.019 114.938,147.906 C114.938,147.906 112.725,155.993 104.068,161.985 C117.009,170.754 128.306,189.33 133.047,197.869 C124.276,200.484 114.992,201.895 105.383,201.895 C51.891,201.895 8.37,158.375 8.37,104.882 C8.37,51.389 51.891,7.87 105.383,7.87 C146.966,7.87 182.518,34.169 196.289,71.007 C183.632,84.98 183.928,101.478 184.293,106.047 L184.293,106.047 Z M83.479,86.022 C85.353,85.904 86.188,86.942 86.978,88.404 C87.505,89.21 88.288,89.935 90.25,90.388 C90.25,90.388 94.109,91.229 91.424,93.419 C90.479,94.19 89.764,94.681 88.785,94.633 C88.589,98.649 86.799,101.693 83.479,101.751 C78.416,101.841 78.52,93.608 78.526,93.47 C79.04,88.779 80.591,86.204 83.479,86.022 L83.479,86.022 Z" id="Shape" sketch:type="MSShapeGroup"></path>
        </g>
    </g>
</svg>