<?xml version="1.0" encoding="UTF-8" standalone="no"?>
<svg width="369px" height="236px" viewBox="0 0 369 236" version="1.1" xmlns="http://www.w3.org/2000/svg" xmlns:xlink="http://www.w3.org/1999/xlink" xmlns:sketch="http://www.bohemiancoding.com/sketch/ns">
    <title>us-outline</title>
    <description>Created with Sketch (http://www.bohemiancoding.com/sketch)</description>
    <defs></defs>
    <g id="Page-1" stroke="none" stroke-width="1" fill="none" fill-rule="evenodd" sketch:type="MSPage">
        <circle id="Oval" fill="#2D97BF" sketch:type="MSShapeGroup" cx="176.16" cy="121.16" r="14.16"></circle>
        <path d="M28.005,15 L190.792,31.047 L207.05,36.628 L223.306,36.628 L220.574,49.186 L240.868,49.186 L234.033,72.908 L239.933,88.955 L254.519,85.836 L257.097,52.675 L271.562,54.768 L277.85,73.605 L275.768,80.582 L287.963,79.384 L302.116,63.141 L303.026,49.885 L331.408,37.826 L334.535,19.684 L347.665,17.118 L358.107,47.491 L339.899,57.982 L342.135,70.816 L324.618,85.836 L320.356,112.279 L323.92,130.817 L300.687,160.779 L296.339,173.626 L310.551,204.772 L310.551,220.819 L295.209,220.819 L284.381,200.586 L284.381,193.609 L271.513,183.841 L231.061,185.934 L228.67,196.4 L195.314,195.005 L180.065,204.772 L176,224.308 L159.317,221.242 L143.906,195.427 L135.906,198.492 L125.362,191.515 L114.287,172.679 L99.951,170.585 L98.032,180.303 L77.626,176.814 L55.714,153.84 L37.293,152.445 L19.666,123.142 L12,88.955 L12.476,54.768 L28.005,15 Z" id="Shape" stroke="#2D97BF" stroke-width="11.9716" sketch:type="MSShapeGroup"></path>
    </g>
</svg>